<svg width="32" height="32" viewBox="0 0 32 32" xmlns="http://www.w3.org/2000/svg" xmlns:xlink="http://www.w3.org/1999/xlink"><title>Group 6</title><defs><rect id="a" width="32" height="32" rx="8"/></defs><g fill="none" fill-rule="evenodd"><use fill="#F7F7F7" xlink:href="#a"/><rect stroke="#4A4A4A" x=".5" y=".5" width="31" height="31" rx="8"/><path d="M7.012 14.687a3.557 3.557 0 0 0-.612 2.018c0 .85.316 1.589.948 2.216.633.628 1.383.941 2.248.941h2.198c-.4.817-.6 1.61-.6 2.377 0 .966.146 1.733.438 2.303.291.57.716.988 1.273 1.257.558.268 1.187.402 1.886.402.425 0 .8-.153 1.124-.458.358-.347.616-.793.774-1.338a17.02 17.02 0 0 0 .38-1.566c.096-.499.244-.852.444-1.058.408-.437.853-.966 1.336-1.585.84-1.08 1.411-1.72 1.71-1.919h3.422c.441 0 .818-.155 1.13-.464a1.52 1.52 0 0 0 .468-1.12V8.77c0-.438-.156-.811-.468-1.12a1.547 1.547 0 0 0-1.13-.465h-3.596c-.183 0-.757-.165-1.723-.495a28.883 28.883 0 0 0-2.703-.811 10.16 10.16 0 0 0-2.367-.279h-1.61c-1.174 0-2.119.332-2.835.997-.716.664-1.07 1.57-1.061 2.717-.5.636-.75 1.37-.75 2.204 0 .181.013.359.038.532a3.532 3.532 0 0 0-.475 1.783c0 .297.038.582.113.854zM22.62 9.005a.772.772 0 0 1 .562-.236c.216 0 .404.079.562.236a.758.758 0 0 1 .237.557.76.76 0 0 1-.237.557.772.772 0 0 1-.562.235.771.771 0 0 1-.562-.235.758.758 0 0 1-.237-.557c0-.215.079-.4.237-.557zM8.266 15.689c.18-.38.402-.573.668-.581a1.668 1.668 0 0 1-.312-.589 2.209 2.209 0 0 1-.124-.687c0-.569.22-1.06.661-1.473a1.7 1.7 0 0 1-.225-.854c0-.305.073-.608.219-.91.145-.3.343-.517.593-.65a4.198 4.198 0 0 1-.062-.692c0-1.379.799-2.068 2.397-2.068h1.51c1.091 0 2.515.301 4.271.904a92.862 92.862 0 0 0 .806.285c.096.033.241.08.437.142a5.32 5.32 0 0 0 .886.216c.154.025.285.038.394.038h.4v7.922h-.4a1.09 1.09 0 0 0-.444.112 2.112 2.112 0 0 0-.5.334c-.17.149-.33.295-.48.44-.15.144-.316.326-.5.544a24.557 24.557 0 0 0-.823 1.034c-.159.206-.254.33-.288.371a21.58 21.58 0 0 1-.961 1.127c-.341.355-.589.807-.743 1.355a22.262 22.262 0 0 0-.38 1.554c-.1.487-.259.838-.475 1.053-.8 0-1.332-.194-1.599-.582-.266-.388-.4-.987-.4-1.795 0-.487.2-1.15.6-1.987.4-.838.6-1.496.6-1.975H9.596c-.416 0-.787-.159-1.111-.477-.325-.317-.487-.686-.487-1.108 0-.288.09-.623.268-1.003z" fill="#333F48" fill-rule="nonzero"/></g></svg>