<svg width="32" height="32" viewBox="0 0 32 32" xmlns="http://www.w3.org/2000/svg" xmlns:xlink="http://www.w3.org/1999/xlink"><title>Group 6</title><defs><rect id="a" width="32" height="32" rx="8"/></defs><g fill="none" fill-rule="evenodd"><use fill="#F7F7F7" xlink:href="#a"/><rect stroke="#4A4A4A" x=".5" y=".5" width="31" height="31" rx="8"/><path d="M24.968 17.114a3.557 3.557 0 0 0 .611-2.018c0-.85-.316-1.589-.948-2.217-.633-.627-1.382-.94-2.248-.94h-2.198c.4-.817.6-1.61.6-2.377 0-.966-.146-1.734-.437-2.303a2.733 2.733 0 0 0-1.274-1.257c-.558-.268-1.186-.402-1.886-.402-.424 0-.799.153-1.123.458-.358.347-.616.793-.774 1.337a17.284 17.284 0 0 0-.381 1.566c-.096.5-.244.852-.444 1.059-.408.437-.853.966-1.336 1.584-.84 1.082-1.41 1.721-1.71 1.92H7.998c-.44 0-.818.154-1.13.464a1.52 1.52 0 0 0-.468 1.12v7.923c0 .438.156.811.468 1.12.313.31.69.465 1.13.465h3.596c.183 0 .758.165 1.723.495 1.024.355 1.926.625 2.704.811a10.16 10.16 0 0 0 2.366.279h1.611c1.174 0 2.118-.333 2.834-.997.716-.665 1.07-1.57 1.062-2.718.5-.635.749-1.37.749-2.203 0-.182-.012-.359-.037-.532a3.532 3.532 0 0 0 .474-1.783 3.2 3.2 0 0 0-.112-.854zM9.359 22.796a.772.772 0 0 1-.561.235.772.772 0 0 1-.562-.235.758.758 0 0 1-.238-.557c0-.215.08-.4.238-.557a.772.772 0 0 1 .562-.235c.216 0 .403.078.561.235a.758.758 0 0 1 .238.557c0 .215-.08.4-.238.557zm14.354-6.684c-.179.38-.402.573-.668.581.125.14.229.337.312.588.083.252.125.481.125.687 0 .57-.22 1.06-.662 1.473a1.7 1.7 0 0 1 .225.854c0 .306-.073.61-.218.91-.146.301-.344.518-.593.65.041.248.062.479.062.693 0 1.378-.8 2.068-2.398 2.068h-1.51c-1.091 0-2.514-.301-4.271-.904a92.862 92.862 0 0 0-.806-.285c-.095-.033-.24-.08-.437-.142a7.062 7.062 0 0 0-.474-.136 5.693 5.693 0 0 0-.412-.08 2.538 2.538 0 0 0-.393-.038h-.4v-7.923h.4c.133 0 .28-.037.443-.11.162-.075.329-.187.5-.335.17-.149.33-.295.48-.44.15-.144.317-.326.5-.544a24.557 24.557 0 0 0 .824-1.034l.287-.372c.458-.56.778-.936.961-1.126.342-.355.59-.807.743-1.356.155-.549.281-1.067.381-1.553.1-.487.258-.838.475-1.053.799 0 1.332.194 1.598.582.266.388.4.986.4 1.795 0 .487-.2 1.15-.6 1.987-.4.838-.6 1.496-.6 1.975h4.396c.417 0 .787.158 1.111.476.325.318.488.687.488 1.108 0 .29-.09.623-.269 1.004z" fill="#333F48" fill-rule="nonzero"/></g></svg>